{
    "asset" : {
        "generator" : "Khronos glTF Blender I/O v3.2.43",
        "version" : "2.0"
    },
    "scene" : 0,
    "scenes" : [
        {
            "extras" : {
                "vs" : {
                    "export_list" : [
                        {
                            "name" : "Collection.dmx",
                            "item_name" : "Collection",
                            "ob_type" : "COLLECTION",
                            "icon" : "GROUP"
                        }
                    ]
                },
                "show_mmd_tabs" : 1,
                "embed_textures" : 0,
                "ui_lang" : 0
            },
            "name" : "Scene",
            "nodes" : [
                0,
                17,
                18,
                19
            ]
        }
    ],
    "nodes" : [
        {
            "extras" : {
                "vs" : {}
            },
            "mesh" : 0,
            "name" : "KuuChanBASE-noimp",
            "rotation" : [
                0.7071068286895752,
                0,
                0,
                0.7071067094802856
            ]
        },
        {
            "name" : "Shoulder.L.003",
            "rotation" : [
                -0.002069483045488596,
                0.0018976706778630614,
                0.007941982708871365,
                0.9999645352363586
            ],
            "scale" : [
                0.9999998807907104,
                1,
                0.9999998807907104
            ],
            "translation" : [
                4.7497451305389404e-08,
                0.3198760449886322,
                7.450580596923828e-09
            ]
        },
        {
            "children" : [
                1
            ],
            "name" : "Shoulder.L.002",
            "rotation" : [
                0.12305989861488342,
                0.008090954273939133,
                0.028873061761260033,
                0.9919461607933044
            ],
            "scale" : [
                1,
                0.9999998807907104,
                1
            ],
            "translation" : [
                -2.998858690261841e-07,
                0.3166748285293579,
                6.51925802230835e-09
            ]
        },
        {
            "children" : [
                2
            ],
            "name" : "Shoulder.L.001",
            "rotation" : [
                -0.0492185615003109,
                -0.06612946093082428,
                -0.7219821214675903,
                0.6869835257530212
            ],
            "scale" : [
                1,
                1,
                1.0000001192092896
            ],
            "translation" : [
                0.1836051046848297,
                0.5714420080184937,
                -0.03123704344034195
            ]
        },
        {
            "name" : "Shoulder.R.003",
            "rotation" : [
                -0.0020695046987384558,
                -0.0018976584542542696,
                -0.007941984571516514,
                0.9999645352363586
            ],
            "scale" : [
                0.9999998807907104,
                0.9999999403953552,
                0.9999998807907104
            ],
            "translation" : [
                -4.98257577419281e-08,
                0.31987595558166504,
                -2.60770320892334e-08
            ]
        },
        {
            "children" : [
                4
            ],
            "name" : "Shoulder.R.002",
            "rotation" : [
                0.12305991351604462,
                -0.008090982213616371,
                -0.028873061761260033,
                0.9919461607933044
            ],
            "scale" : [
                0.9999999403953552,
                0.9999998211860657,
                1
            ],
            "translation" : [
                1.8347054719924927e-07,
                0.3166748285293579,
                3.4458935260772705e-08
            ]
        },
        {
            "children" : [
                5
            ],
            "name" : "Shoulder.R.001",
            "rotation" : [
                -0.04921874403953552,
                0.06612930446863174,
                0.7219820618629456,
                0.6869835257530212
            ],
            "scale" : [
                1,
                1,
                0.9999999403953552
            ],
            "translation" : [
                -0.1836051046848297,
                0.5714420080184937,
                -0.031237132847309113
            ]
        },
        {
            "name" : "Bone.001",
            "rotation" : [
                0.030800338834524155,
                6.720732098012411e-14,
                7.343341046350815e-09,
                0.9995255470275879
            ],
            "scale" : [
                1,
                1,
                0.9999999403953552
            ],
            "translation" : [
                1.3018083247669232e-15,
                0.7114733457565308,
                -3.725290298461914e-09
            ]
        },
        {
            "name" : "Hip.R.003",
            "rotation" : [
                0.06304885447025299,
                0.06551308184862137,
                0.49445655941963196,
                0.8644337058067322
            ],
            "scale" : [
                0.9999999403953552,
                1,
                1
            ],
            "translation" : [
                -1.1641532182693481e-09,
                0.5438689589500427,
                3.026798367500305e-09
            ]
        },
        {
            "children" : [
                8
            ],
            "name" : "Hip.R.002",
            "rotation" : [
                0.018133198842406273,
                0.000322819862049073,
                0.01852923259139061,
                0.9996638298034668
            ],
            "scale" : [
                1.0000001192092896,
                1,
                1
            ],
            "translation" : [
                4.6566128730773926e-09,
                0.4690885841846466,
                0
            ]
        },
        {
            "children" : [
                9
            ],
            "name" : "Hip.R.001",
            "rotation" : [
                -0.7196292281150818,
                -0.04514516517519951,
                0.6913294792175293,
                0.046468187123537064
            ],
            "scale" : [
                1,
                0.9999998807907104,
                0.9999910593032837
            ],
            "translation" : [
                -0.11639074236154556,
                -0.10510995984077454,
                -0.009787090122699738
            ]
        },
        {
            "name" : "Hip.L.003",
            "rotation" : [
                0.06304887682199478,
                -0.06551317125558853,
                -0.49445655941963196,
                0.8644337058067322
            ],
            "scale" : [
                0.9999999403953552,
                0.9999999403953552,
                1
            ],
            "translation" : [
                -2.0954757928848267e-09,
                0.5438688397407532,
                6.05359673500061e-09
            ]
        },
        {
            "children" : [
                11
            ],
            "name" : "Hip.L.002",
            "rotation" : [
                0.018133217468857765,
                -0.00032283522887155414,
                -0.01852922886610031,
                0.9996638298034668
            ],
            "scale" : [
                1,
                0.9999999403953552,
                0.9999999403953552
            ],
            "translation" : [
                -7.916241884231567e-09,
                0.46908870339393616,
                3.14321368932724e-09
            ]
        },
        {
            "children" : [
                12
            ],
            "name" : "Hip.L.001",
            "rotation" : [
                -0.7196290493011475,
                0.045145150274038315,
                -0.6913297176361084,
                0.04646821692585945
            ],
            "scale" : [
                1,
                0.9999999403953552,
                0.9999905228614807
            ],
            "translation" : [
                0.11639075726270676,
                -0.10510995984077454,
                -0.009787037037312984
            ]
        },
        {
            "children" : [
                3,
                6,
                7,
                10,
                13
            ],
            "name" : "Bone",
            "rotation" : [
                -0.7285504341125488,
                2.9668771617252787e-07,
                1.4185404495492548e-07,
                0.6849921941757202
            ],
            "scale" : [
                1,
                0.9999998807907104,
                0.9999998807907104
            ],
            "translation" : [
                -9.430607406102354e-09,
                0.40000003576278687,
                -0.01502084732055664
            ]
        },
        {
            "children" : [
                14
            ],
            "name" : "Bone.002",
            "rotation" : [
                0.7071068286895752,
                -2.2197248483735166e-07,
                -2.2197248483735166e-07,
                0.7071068286895752
            ],
            "translation" : [
                0,
                1.2000000476837158,
                -0.40000003576278687
            ]
        },
        {
            "extras" : {
                "vs" : {},
                "ant_landscape" : {}
            },
            "mesh" : 1,
            "name" : "Sphere-noimp",
            "skin" : 0
        },
        {
            "children" : [
                16,
                15
            ],
            "extras" : {
                "ant_landscape" : {},
                "vs" : {}
            },
            "name" : "Armature-noimp"
        },
        {
            "extras" : {
                "vs" : {},
                "ant_landscape" : {}
            },
            "mesh" : 2,
            "name" : "Manaqquin_Forsaken"
        },
        {
            "extras" : {
                "vs" : {},
                "ant_landscape" : {}
            },
            "mesh" : 3,
            "name" : "Manaqquin_WallGreif"
        }
    ],
    "materials" : [
        {
            "doubleSided" : true,
            "name" : "KuuSkin",
            "pbrMetallicRoughness" : {
                "baseColorFactor" : [
                    0.800000011920929,
                    0.800000011920929,
                    0.800000011920929,
                    1
                ],
                "metallicFactor" : 0,
                "roughnessFactor" : 0.4000000059604645
            }
        }
    ],
    "meshes" : [
        {
            "name" : "KuuChanBASE.001_Cube.001",
            "primitives" : [
                {
                    "attributes" : {
                        "POSITION" : 0,
                        "NORMAL" : 1,
                        "TANGENT" : 2,
                        "TEXCOORD_0" : 3
                    },
                    "indices" : 4,
                    "material" : 0
                }
            ]
        },
        {
            "name" : "Sphere.002",
            "primitives" : [
                {
                    "attributes" : {
                        "POSITION" : 5,
                        "NORMAL" : 6,
                        "TEXCOORD_0" : 7,
                        "JOINTS_0" : 8,
                        "WEIGHTS_0" : 9
                    },
                    "indices" : 10,
                    "material" : 0
                }
            ]
        },
        {
            "name" : "Sphere.003",
            "primitives" : [
                {
                    "attributes" : {
                        "POSITION" : 12,
                        "NORMAL" : 13,
                        "TEXCOORD_0" : 14
                    },
                    "indices" : 10,
                    "material" : 0
                }
            ]
        },
        {
            "name" : "Sphere.004",
            "primitives" : [
                {
                    "attributes" : {
                        "POSITION" : 15,
                        "NORMAL" : 16,
                        "TEXCOORD_0" : 17
                    },
                    "indices" : 10,
                    "material" : 0
                }
            ]
        }
    ],
    "skins" : [
        {
            "inverseBindMatrices" : 11,
            "joints" : [
                15,
                14,
                3,
                2,
                1,
                6,
                5,
                4,
                7,
                10,
                9,
                8,
                13,
                12,
                11
            ],
            "name" : "Armature-noimp"
        }
    ],
    "accessors" : [
        {
            "bufferView" : 0,
            "componentType" : 5126,
            "count" : 4017,
            "max" : [
                1.0390119552612305,
                0.15571199357509613,
                0.00571299996227026
            ],
            "min" : [
                -1.0390119552612305,
                -0.16460199654102325,
                -2.2262439727783203
            ],
            "type" : "VEC3"
        },
        {
            "bufferView" : 1,
            "componentType" : 5126,
            "count" : 4017,
            "type" : "VEC3"
        },
        {
            "bufferView" : 2,
            "componentType" : 5126,
            "count" : 4017,
            "type" : "VEC4"
        },
        {
            "bufferView" : 3,
            "componentType" : 5126,
            "count" : 4017,
            "type" : "VEC2"
        },
        {
            "bufferView" : 4,
            "componentType" : 5123,
            "count" : 19950,
            "type" : "SCALAR"
        },
        {
            "bufferView" : 5,
            "componentType" : 5126,
            "count" : 5903,
            "max" : [
                1.0354119539260864,
                2.2262439727783203,
                0.15571199357509613
            ],
            "min" : [
                -1.0354119539260864,
                -0.005712986458092928,
                -0.16460180282592773
            ],
            "type" : "VEC3"
        },
        {
            "bufferView" : 6,
            "componentType" : 5126,
            "count" : 5903,
            "type" : "VEC3"
        },
        {
            "bufferView" : 7,
            "componentType" : 5126,
            "count" : 5903,
            "type" : "VEC2"
        },
        {
            "bufferView" : 8,
            "componentType" : 5121,
            "count" : 5903,
            "type" : "VEC4"
        },
        {
            "bufferView" : 9,
            "componentType" : 5126,
            "count" : 5903,
            "type" : "VEC4"
        },
        {
            "bufferView" : 10,
            "componentType" : 5123,
            "count" : 28680,
            "type" : "SCALAR"
        },
        {
            "bufferView" : 11,
            "componentType" : 5126,
            "count" : 15,
            "type" : "MAT4"
        },
        {
            "bufferView" : 12,
            "componentType" : 5126,
            "count" : 5903,
            "max" : [
                0.3754223585128784,
                1.479699969291687,
                0.3328392803668976
            ],
            "min" : [
                -0.4498821496963501,
                -0.021993577480316162,
                -0.4657304286956787
            ],
            "type" : "VEC3"
        },
        {
            "bufferView" : 13,
            "componentType" : 5126,
            "count" : 5903,
            "type" : "VEC3"
        },
        {
            "bufferView" : 14,
            "componentType" : 5126,
            "count" : 5903,
            "type" : "VEC2"
        },
        {
            "bufferView" : 15,
            "componentType" : 5126,
            "count" : 5903,
            "max" : [
                0.4718952775001526,
                2.3868160247802734,
                0.33398082852363586
            ],
            "min" : [
                -0.45316943526268005,
                -0.005173070356249809,
                -0.16797354817390442
            ],
            "type" : "VEC3"
        },
        {
            "bufferView" : 16,
            "componentType" : 5126,
            "count" : 5903,
            "type" : "VEC3"
        },
        {
            "bufferView" : 17,
            "componentType" : 5126,
            "count" : 5903,
            "type" : "VEC2"
        }
    ],
    "bufferViews" : [
        {
            "buffer" : 0,
            "byteLength" : 48204,
            "byteOffset" : 0
        },
        {
            "buffer" : 0,
            "byteLength" : 48204,
            "byteOffset" : 48204
        },
        {
            "buffer" : 0,
            "byteLength" : 64272,
            "byteOffset" : 96408
        },
        {
            "buffer" : 0,
            "byteLength" : 32136,
            "byteOffset" : 160680
        },
        {
            "buffer" : 0,
            "byteLength" : 39900,
            "byteOffset" : 192816
        },
        {
            "buffer" : 0,
            "byteLength" : 70836,
            "byteOffset" : 232716
        },
        {
            "buffer" : 0,
            "byteLength" : 70836,
            "byteOffset" : 303552
        },
        {
            "buffer" : 0,
            "byteLength" : 47224,
            "byteOffset" : 374388
        },
        {
            "buffer" : 0,
            "byteLength" : 23612,
            "byteOffset" : 421612
        },
        {
            "buffer" : 0,
            "byteLength" : 94448,
            "byteOffset" : 445224
        },
        {
            "buffer" : 0,
            "byteLength" : 57360,
            "byteOffset" : 539672
        },
        {
            "buffer" : 0,
            "byteLength" : 960,
            "byteOffset" : 597032
        },
        {
            "buffer" : 0,
            "byteLength" : 70836,
            "byteOffset" : 597992
        },
        {
            "buffer" : 0,
            "byteLength" : 70836,
            "byteOffset" : 668828
        },
        {
            "buffer" : 0,
            "byteLength" : 47224,
            "byteOffset" : 739664
        },
        {
            "buffer" : 0,
            "byteLength" : 70836,
            "byteOffset" : 786888
        },
        {
            "buffer" : 0,
            "byteLength" : 70836,
            "byteOffset" : 857724
        },
        {
            "buffer" : 0,
            "byteLength" : 47224,
            "byteOffset" : 928560
        }
    ],
    "buffers" : [
        {
            "byteLength" : 975784,
            "uri" : "mannequin-d17ceb1f515a9245c33c025c744609f7.bin"
        }
    ]
}
